<mxfile host="app.diagrams.net" modified="2024-01-22T14:34:21.406Z" agent="Mozilla/5.0 (Windows NT 10.0; Win64; x64) AppleWebKit/537.36 (KHTML, like Gecko) Chrome/120.0.0.0 Safari/537.36" etag="zJwS5t_WTYHSO8nxjqwf" version="22.1.21" type="github">
  <diagram name="Page-1" id="jM4SRUG0wkxFFlr8D5Bl">
    <mxGraphModel dx="2284" dy="746" grid="1" gridSize="10" guides="1" tooltips="1" connect="1" arrows="1" fold="1" page="1" pageScale="1" pageWidth="850" pageHeight="1100" math="0" shadow="0">
      <root>
        <mxCell id="0" />
        <mxCell id="1" parent="0" />
        <mxCell id="E9GReNg-ktcZnUG_Qeob-2" value="Private subnet&amp;nbsp;" style="points=[[0,0],[0.25,0],[0.5,0],[0.75,0],[1,0],[1,0.25],[1,0.5],[1,0.75],[1,1],[0.75,1],[0.5,1],[0.25,1],[0,1],[0,0.75],[0,0.5],[0,0.25]];outlineConnect=0;gradientColor=none;html=1;whiteSpace=wrap;fontSize=10;fontStyle=0;container=1;pointerEvents=0;collapsible=0;recursiveResize=0;shape=mxgraph.aws4.group;grIcon=mxgraph.aws4.group_security_group;grStroke=0;strokeColor=#147EBA;fillColor=#E6F2F8;verticalAlign=top;align=left;spacingLeft=30;fontColor=#147EBA;dashed=0;" vertex="1" parent="1">
          <mxGeometry x="88" y="1328" width="300" height="150" as="geometry" />
        </mxCell>
        <mxCell id="E9GReNg-ktcZnUG_Qeob-3" value="My SQL MutliAZ&lt;br style=&quot;font-size: 10px;&quot;&gt;RDS (active)" style="sketch=0;outlineConnect=0;fontColor=#232F3E;gradientColor=none;fillColor=#2E27AD;strokeColor=none;dashed=0;verticalLabelPosition=bottom;verticalAlign=top;align=center;html=1;fontSize=10;fontStyle=0;aspect=fixed;pointerEvents=1;shape=mxgraph.aws4.rds_multi_az;" vertex="1" parent="E9GReNg-ktcZnUG_Qeob-2">
          <mxGeometry x="128.1" y="50" width="53.79" height="40" as="geometry" />
        </mxCell>
        <mxCell id="E9GReNg-ktcZnUG_Qeob-4" value="RDS SG" style="fillColor=none;strokeColor=#DD3522;verticalAlign=top;fontStyle=0;fontColor=#DD3522;fontSize=10;" vertex="1" parent="E9GReNg-ktcZnUG_Qeob-2">
          <mxGeometry x="97" y="28" width="105" height="105" as="geometry" />
        </mxCell>
        <mxCell id="E9GReNg-ktcZnUG_Qeob-5" value="Public subnet" style="points=[[0,0],[0.25,0],[0.5,0],[0.75,0],[1,0],[1,0.25],[1,0.5],[1,0.75],[1,1],[0.75,1],[0.5,1],[0.25,1],[0,1],[0,0.75],[0,0.5],[0,0.25]];outlineConnect=0;gradientColor=none;html=1;whiteSpace=wrap;fontSize=10;fontStyle=0;container=1;pointerEvents=0;collapsible=0;recursiveResize=0;shape=mxgraph.aws4.group;grIcon=mxgraph.aws4.group_security_group;grStroke=0;strokeColor=#248814;fillColor=#E9F3E6;verticalAlign=top;align=left;spacingLeft=30;fontColor=#248814;dashed=0;" vertex="1" parent="1">
          <mxGeometry x="88" y="1143.5" width="300" height="150" as="geometry" />
        </mxCell>
        <mxCell id="E9GReNg-ktcZnUG_Qeob-6" value="Public subnet" style="points=[[0,0],[0.25,0],[0.5,0],[0.75,0],[1,0],[1,0.25],[1,0.5],[1,0.75],[1,1],[0.75,1],[0.5,1],[0.25,1],[0,1],[0,0.75],[0,0.5],[0,0.25]];outlineConnect=0;gradientColor=none;html=1;whiteSpace=wrap;fontSize=10;fontStyle=0;container=1;pointerEvents=0;collapsible=0;recursiveResize=0;shape=mxgraph.aws4.group;grIcon=mxgraph.aws4.group_security_group;grStroke=0;strokeColor=#248814;fillColor=#E9F3E6;verticalAlign=top;align=left;spacingLeft=30;fontColor=#248814;dashed=0;" vertex="1" parent="1">
          <mxGeometry x="468" y="1143.5" width="300" height="150" as="geometry" />
        </mxCell>
        <mxCell id="E9GReNg-ktcZnUG_Qeob-7" value="Private subnet" style="points=[[0,0],[0.25,0],[0.5,0],[0.75,0],[1,0],[1,0.25],[1,0.5],[1,0.75],[1,1],[0.75,1],[0.5,1],[0.25,1],[0,1],[0,0.75],[0,0.5],[0,0.25]];outlineConnect=0;gradientColor=none;html=1;whiteSpace=wrap;fontSize=10;fontStyle=0;container=1;pointerEvents=0;collapsible=0;recursiveResize=0;shape=mxgraph.aws4.group;grIcon=mxgraph.aws4.group_security_group;grStroke=0;strokeColor=#147EBA;fillColor=#E6F2F8;verticalAlign=top;align=left;spacingLeft=30;fontColor=#147EBA;dashed=0;" vertex="1" parent="1">
          <mxGeometry x="468" y="1328" width="300" height="150" as="geometry" />
        </mxCell>
        <mxCell id="E9GReNg-ktcZnUG_Qeob-8" value="My SQL MultiAZ&amp;nbsp;&lt;br style=&quot;font-size: 10px;&quot;&gt;RDS (standby)" style="sketch=0;outlineConnect=0;fontColor=#232F3E;gradientColor=none;fillColor=#2E27AD;strokeColor=none;dashed=0;verticalLabelPosition=bottom;verticalAlign=top;align=center;html=1;fontSize=10;fontStyle=0;aspect=fixed;pointerEvents=1;shape=mxgraph.aws4.rds_multi_az;" vertex="1" parent="E9GReNg-ktcZnUG_Qeob-7">
          <mxGeometry x="129.1" y="50" width="53.79" height="40" as="geometry" />
        </mxCell>
        <mxCell id="E9GReNg-ktcZnUG_Qeob-9" value="RDS SG" style="fillColor=none;strokeColor=#DD3522;verticalAlign=top;fontStyle=0;fontColor=#DD3522;fontSize=10;" vertex="1" parent="E9GReNg-ktcZnUG_Qeob-7">
          <mxGeometry x="102" y="29" width="105" height="105" as="geometry" />
        </mxCell>
        <mxCell id="E9GReNg-ktcZnUG_Qeob-10" value="Synchronous&amp;nbsp;replication" style="edgeStyle=orthogonalEdgeStyle;rounded=0;orthogonalLoop=1;jettySize=auto;html=1;fontSize=10;" edge="1" parent="1" source="E9GReNg-ktcZnUG_Qeob-3" target="E9GReNg-ktcZnUG_Qeob-8">
          <mxGeometry relative="1" as="geometry">
            <mxPoint x="788" y="1413" as="targetPoint" />
          </mxGeometry>
        </mxCell>
        <mxCell id="E9GReNg-ktcZnUG_Qeob-11" value="Internet gateway" style="outlineConnect=0;dashed=0;verticalLabelPosition=top;verticalAlign=bottom;align=center;html=1;shape=mxgraph.aws3.internet_gateway;fillColor=#F58534;gradientColor=none;fontSize=10;labelPosition=center;" vertex="1" parent="1">
          <mxGeometry x="409" y="1019" width="39" height="40" as="geometry" />
        </mxCell>
        <mxCell id="E9GReNg-ktcZnUG_Qeob-12" value="Parameter&lt;br style=&quot;font-size: 10px;&quot;&gt;Store&lt;br style=&quot;font-size: 10px;&quot;&gt;(db pw)" style="sketch=0;outlineConnect=0;fontColor=#232F3E;gradientColor=none;strokeColor=#232F3E;fillColor=#ffffff;dashed=0;verticalLabelPosition=bottom;verticalAlign=top;align=center;html=1;fontSize=10;fontStyle=0;aspect=fixed;shape=mxgraph.aws4.resourceIcon;resIcon=mxgraph.aws4.parameter_store;shadow=0;opacity=50;" vertex="1" parent="1">
          <mxGeometry x="825" y="1328" width="40" height="40" as="geometry" />
        </mxCell>
        <mxCell id="E9GReNg-ktcZnUG_Qeob-13" value="VPC" style="sketch=0;outlineConnect=0;gradientColor=none;html=1;whiteSpace=wrap;fontSize=10;fontStyle=0;shape=mxgraph.aws4.group;grIcon=mxgraph.aws4.group_vpc;strokeColor=#879196;fillColor=none;verticalAlign=top;align=left;spacingLeft=30;fontColor=#879196;dashed=0;shadow=0;opacity=50;" vertex="1" parent="1">
          <mxGeometry x="57" y="1038" width="741" height="460" as="geometry" />
        </mxCell>
        <mxCell id="E9GReNg-ktcZnUG_Qeob-14" value="&lt;font color=&quot;#000000&quot; style=&quot;font-size: 12px;&quot;&gt;AWS Cloud&lt;/font&gt;" style="sketch=0;outlineConnect=0;gradientColor=none;html=1;whiteSpace=wrap;fontSize=10;fontStyle=0;shape=mxgraph.aws4.group;grIcon=mxgraph.aws4.group_aws_cloud;strokeColor=#858B94;fillColor=none;verticalAlign=top;align=left;spacingLeft=30;fontColor=#858B94;dashed=0;shadow=0;opacity=50;" vertex="1" parent="1">
          <mxGeometry x="-63" y="941" width="970" height="572" as="geometry" />
        </mxCell>
        <mxCell id="E9GReNg-ktcZnUG_Qeob-15" value="     Availability Zone A" style="rounded=1;arcSize=10;dashed=1;strokeColor=#F59D56;fillColor=none;gradientColor=none;dashPattern=8 4;strokeWidth=2;verticalAlign=top;align=left;fontSize=10;" vertex="1" parent="1">
          <mxGeometry x="78" y="1122" width="320" height="367" as="geometry" />
        </mxCell>
        <mxCell id="E9GReNg-ktcZnUG_Qeob-16" value=" Availability Zone B    " style="rounded=1;arcSize=10;dashed=1;strokeColor=#F59D56;fillColor=none;gradientColor=none;dashPattern=8 4;strokeWidth=2;verticalAlign=top;align=right;fontSize=10;" vertex="1" parent="1">
          <mxGeometry x="458" y="1123" width="320" height="366" as="geometry" />
        </mxCell>
        <mxCell id="E9GReNg-ktcZnUG_Qeob-17" value="IGW route table" style="sketch=0;outlineConnect=0;fontColor=#232F3E;gradientColor=none;fillColor=#4D27AA;strokeColor=none;dashed=0;verticalLabelPosition=bottom;verticalAlign=top;align=center;html=1;fontSize=10;fontStyle=0;aspect=fixed;pointerEvents=1;shape=mxgraph.aws4.route_table;" vertex="1" parent="1">
          <mxGeometry x="491" y="1053" width="30" height="30" as="geometry" />
        </mxCell>
        <mxCell id="E9GReNg-ktcZnUG_Qeob-18" value="Region" style="shape=mxgraph.ibm.box;prType=region;fontStyle=0;verticalAlign=top;align=left;spacingLeft=32;spacingTop=4;fillColor=none;rounded=0;whiteSpace=wrap;html=1;strokeColor=#919191;strokeWidth=2;dashed=0;container=1;spacing=-4;collapsible=0;expand=0;recursiveResize=0;fontSize=10;" vertex="1" parent="1">
          <mxGeometry x="-36" y="969" width="935" height="537" as="geometry" />
        </mxCell>
        <mxCell id="E9GReNg-ktcZnUG_Qeob-19" value="&lt;font style=&quot;font-size: 10px;&quot;&gt;Task role &amp;amp;&amp;nbsp;&lt;br&gt;execution role&lt;br&gt;for ECS&lt;/font&gt;" style="sketch=0;outlineConnect=0;fontColor=#232F3E;gradientColor=none;fillColor=#BF0816;strokeColor=none;dashed=0;verticalLabelPosition=bottom;verticalAlign=top;align=center;html=1;fontSize=12;fontStyle=0;aspect=fixed;pointerEvents=1;shape=mxgraph.aws4.identity_access_management_iam_roles_anywhere;" vertex="1" parent="E9GReNg-ktcZnUG_Qeob-18">
          <mxGeometry x="863" y="173" width="40" height="40" as="geometry" />
        </mxCell>
        <mxCell id="E9GReNg-ktcZnUG_Qeob-20" value="ALB" style="outlineConnect=0;dashed=0;verticalLabelPosition=bottom;verticalAlign=top;align=center;html=1;shape=mxgraph.aws3.application_load_balancer;fillColor=#F58534;gradientColor=none;" vertex="1" parent="E9GReNg-ktcZnUG_Qeob-18">
          <mxGeometry x="440" y="96.75" width="50" height="50" as="geometry" />
        </mxCell>
        <mxCell id="E9GReNg-ktcZnUG_Qeob-21" value="&lt;font style=&quot;font-size: 10px;&quot;&gt;Public ECR&lt;/font&gt;" style="outlineConnect=0;dashed=0;verticalLabelPosition=bottom;verticalAlign=top;align=center;html=1;shape=mxgraph.aws3.ecr_registry;fillColor=#F58534;gradientColor=none;" vertex="1" parent="E9GReNg-ktcZnUG_Qeob-18">
          <mxGeometry x="762" y="9" width="40" height="40" as="geometry" />
        </mxCell>
        <mxCell id="E9GReNg-ktcZnUG_Qeob-22" value="ECS FARGATE cluster" style="outlineConnect=0;dashed=0;verticalLabelPosition=bottom;verticalAlign=top;align=center;html=1;shape=mxgraph.aws3.ecs;fillColor=#F58534;gradientColor=none;" vertex="1" parent="E9GReNg-ktcZnUG_Qeob-18">
          <mxGeometry x="223" y="84" width="40" height="40" as="geometry" />
        </mxCell>
        <mxCell id="E9GReNg-ktcZnUG_Qeob-23" value="Service" style="sketch=0;points=[[0,0,0],[0.25,0,0],[0.5,0,0],[0.75,0,0],[1,0,0],[0,1,0],[0.25,1,0],[0.5,1,0],[0.75,1,0],[1,1,0],[0,0.25,0],[0,0.5,0],[0,0.75,0],[1,0.25,0],[1,0.5,0],[1,0.75,0]];outlineConnect=0;fontColor=#232F3E;gradientColor=#F78E04;gradientDirection=north;fillColor=#D05C17;strokeColor=#ffffff;dashed=0;verticalLabelPosition=bottom;verticalAlign=top;align=center;html=1;fontSize=12;fontStyle=0;aspect=fixed;shape=mxgraph.aws4.resourceIcon;resIcon=mxgraph.aws4.fargate;" vertex="1" parent="E9GReNg-ktcZnUG_Qeob-18">
          <mxGeometry x="212" y="230" width="40" height="40" as="geometry" />
        </mxCell>
        <mxCell id="E9GReNg-ktcZnUG_Qeob-24" value="Task" style="sketch=0;outlineConnect=0;fontColor=#232F3E;gradientColor=none;fillColor=#D45B07;strokeColor=none;dashed=0;verticalLabelPosition=bottom;verticalAlign=top;align=center;html=1;fontSize=12;fontStyle=0;pointerEvents=1;shape=mxgraph.aws4.ecs_task;" vertex="1" parent="E9GReNg-ktcZnUG_Qeob-18">
          <mxGeometry x="271" y="226" width="20" height="20" as="geometry" />
        </mxCell>
        <mxCell id="E9GReNg-ktcZnUG_Qeob-25" value="Task" style="sketch=0;outlineConnect=0;fontColor=#232F3E;gradientColor=none;fillColor=#D45B07;strokeColor=none;dashed=0;verticalLabelPosition=bottom;verticalAlign=top;align=center;html=1;fontSize=12;fontStyle=0;pointerEvents=1;shape=mxgraph.aws4.ecs_task;" vertex="1" parent="E9GReNg-ktcZnUG_Qeob-18">
          <mxGeometry x="291" y="250" width="20" height="20" as="geometry" />
        </mxCell>
        <mxCell id="E9GReNg-ktcZnUG_Qeob-26" value="Task" style="sketch=0;outlineConnect=0;fontColor=#232F3E;gradientColor=none;fillColor=#D45B07;strokeColor=none;dashed=0;verticalLabelPosition=bottom;verticalAlign=top;align=center;html=1;fontSize=12;fontStyle=0;pointerEvents=1;shape=mxgraph.aws4.ecs_task;" vertex="1" parent="E9GReNg-ktcZnUG_Qeob-18">
          <mxGeometry x="314" y="230" width="20" height="20" as="geometry" />
        </mxCell>
        <mxCell id="E9GReNg-ktcZnUG_Qeob-27" value="ECS SG" style="fillColor=none;strokeColor=#DD3522;verticalAlign=top;fontStyle=0;fontColor=#DD3522;whiteSpace=wrap;html=1;" vertex="1" parent="E9GReNg-ktcZnUG_Qeob-18">
          <mxGeometry x="185" y="197" width="178" height="118" as="geometry" />
        </mxCell>
        <mxCell id="E9GReNg-ktcZnUG_Qeob-28" value="Service" style="sketch=0;points=[[0,0,0],[0.25,0,0],[0.5,0,0],[0.75,0,0],[1,0,0],[0,1,0],[0.25,1,0],[0.5,1,0],[0.75,1,0],[1,1,0],[0,0.25,0],[0,0.5,0],[0,0.75,0],[1,0.25,0],[1,0.5,0],[1,0.75,0]];outlineConnect=0;fontColor=#232F3E;gradientColor=#F78E04;gradientDirection=north;fillColor=#D05C17;strokeColor=#ffffff;dashed=0;verticalLabelPosition=bottom;verticalAlign=top;align=center;html=1;fontSize=12;fontStyle=0;aspect=fixed;shape=mxgraph.aws4.resourceIcon;resIcon=mxgraph.aws4.fargate;" vertex="1" parent="E9GReNg-ktcZnUG_Qeob-18">
          <mxGeometry x="596" y="230" width="40" height="40" as="geometry" />
        </mxCell>
        <mxCell id="E9GReNg-ktcZnUG_Qeob-29" value="Task" style="sketch=0;outlineConnect=0;fontColor=#232F3E;gradientColor=none;fillColor=#D45B07;strokeColor=none;dashed=0;verticalLabelPosition=bottom;verticalAlign=top;align=center;html=1;fontSize=12;fontStyle=0;pointerEvents=1;shape=mxgraph.aws4.ecs_task;" vertex="1" parent="E9GReNg-ktcZnUG_Qeob-18">
          <mxGeometry x="655" y="226" width="20" height="20" as="geometry" />
        </mxCell>
        <mxCell id="E9GReNg-ktcZnUG_Qeob-30" value="Task" style="sketch=0;outlineConnect=0;fontColor=#232F3E;gradientColor=none;fillColor=#D45B07;strokeColor=none;dashed=0;verticalLabelPosition=bottom;verticalAlign=top;align=center;html=1;fontSize=12;fontStyle=0;pointerEvents=1;shape=mxgraph.aws4.ecs_task;" vertex="1" parent="E9GReNg-ktcZnUG_Qeob-18">
          <mxGeometry x="675" y="250" width="20" height="20" as="geometry" />
        </mxCell>
        <mxCell id="E9GReNg-ktcZnUG_Qeob-31" value="Task" style="sketch=0;outlineConnect=0;fontColor=#232F3E;gradientColor=none;fillColor=#D45B07;strokeColor=none;dashed=0;verticalLabelPosition=bottom;verticalAlign=top;align=center;html=1;fontSize=12;fontStyle=0;pointerEvents=1;shape=mxgraph.aws4.ecs_task;" vertex="1" parent="E9GReNg-ktcZnUG_Qeob-18">
          <mxGeometry x="698" y="230" width="20" height="20" as="geometry" />
        </mxCell>
        <mxCell id="E9GReNg-ktcZnUG_Qeob-32" value="ECS SG" style="fillColor=none;strokeColor=#DD3522;verticalAlign=top;fontStyle=0;fontColor=#DD3522;whiteSpace=wrap;html=1;" vertex="1" parent="E9GReNg-ktcZnUG_Qeob-18">
          <mxGeometry x="569" y="197" width="178" height="118" as="geometry" />
        </mxCell>
        <mxCell id="E9GReNg-ktcZnUG_Qeob-33" value="" style="endArrow=none;html=1;rounded=0;" edge="1" parent="E9GReNg-ktcZnUG_Qeob-18">
          <mxGeometry width="50" height="50" relative="1" as="geometry">
            <mxPoint x="364" y="271" as="sourcePoint" />
            <mxPoint x="466" y="173" as="targetPoint" />
            <Array as="points">
              <mxPoint x="568" y="271" />
              <mxPoint x="466" y="271" />
            </Array>
          </mxGeometry>
        </mxCell>
        <mxCell id="E9GReNg-ktcZnUG_Qeob-34" value=":8000" style="edgeLabel;html=1;align=center;verticalAlign=middle;resizable=0;points=[];fontSize=10;" vertex="1" connectable="0" parent="E9GReNg-ktcZnUG_Qeob-33">
          <mxGeometry x="-0.91" y="-1" relative="1" as="geometry">
            <mxPoint x="-2" y="8" as="offset" />
          </mxGeometry>
        </mxCell>
        <mxCell id="E9GReNg-ktcZnUG_Qeob-35" value=":8000" style="edgeLabel;html=1;align=center;verticalAlign=middle;resizable=0;points=[];fontSize=10;" vertex="1" connectable="0" parent="E9GReNg-ktcZnUG_Qeob-33">
          <mxGeometry x="0.0858" relative="1" as="geometry">
            <mxPoint x="-1" y="9" as="offset" />
          </mxGeometry>
        </mxCell>
        <mxCell id="E9GReNg-ktcZnUG_Qeob-36" value="" style="endArrow=none;html=1;rounded=0;entryX=0.476;entryY=1.023;entryDx=0;entryDy=0;entryPerimeter=0;" edge="1" parent="E9GReNg-ktcZnUG_Qeob-18" target="E9GReNg-ktcZnUG_Qeob-27">
          <mxGeometry width="50" height="50" relative="1" as="geometry">
            <mxPoint x="270" y="393" as="sourcePoint" />
            <mxPoint x="321" y="343" as="targetPoint" />
          </mxGeometry>
        </mxCell>
        <mxCell id="E9GReNg-ktcZnUG_Qeob-37" value="5431" style="edgeLabel;html=1;align=center;verticalAlign=middle;resizable=0;points=[];fontSize=10;" vertex="1" connectable="0" parent="E9GReNg-ktcZnUG_Qeob-36">
          <mxGeometry x="-0.3331" y="-1" relative="1" as="geometry">
            <mxPoint x="20" y="5" as="offset" />
          </mxGeometry>
        </mxCell>
        <mxCell id="E9GReNg-ktcZnUG_Qeob-38" value="" style="endArrow=none;html=1;rounded=0;entryX=0.5;entryY=1;entryDx=0;entryDy=0;" edge="1" parent="E9GReNg-ktcZnUG_Qeob-18" target="E9GReNg-ktcZnUG_Qeob-32">
          <mxGeometry width="50" height="50" relative="1" as="geometry">
            <mxPoint x="658" y="395" as="sourcePoint" />
            <mxPoint x="705" y="345" as="targetPoint" />
          </mxGeometry>
        </mxCell>
        <mxCell id="E9GReNg-ktcZnUG_Qeob-39" value="" style="endArrow=none;html=1;rounded=0;entryX=0.617;entryY=-0.097;entryDx=0;entryDy=0;entryPerimeter=0;" edge="1" parent="E9GReNg-ktcZnUG_Qeob-18" target="E9GReNg-ktcZnUG_Qeob-45">
          <mxGeometry width="50" height="50" relative="1" as="geometry">
            <mxPoint x="419" y="-44" as="sourcePoint" />
            <mxPoint x="419" y="134" as="targetPoint" />
          </mxGeometry>
        </mxCell>
        <mxCell id="E9GReNg-ktcZnUG_Qeob-40" value=":80" style="text;html=1;align=center;verticalAlign=middle;resizable=0;points=[];autosize=1;strokeColor=none;fillColor=none;" vertex="1" parent="E9GReNg-ktcZnUG_Qeob-18">
          <mxGeometry x="390" y="82" width="35" height="26" as="geometry" />
        </mxCell>
        <mxCell id="E9GReNg-ktcZnUG_Qeob-41" value="5431" style="edgeLabel;html=1;align=center;verticalAlign=middle;resizable=0;points=[];fontSize=10;" vertex="1" connectable="0" parent="E9GReNg-ktcZnUG_Qeob-18">
          <mxGeometry x="665.0002947331129" y="374.99896296245856" as="geometry">
            <mxPoint x="15" y="-1" as="offset" />
          </mxGeometry>
        </mxCell>
        <mxCell id="E9GReNg-ktcZnUG_Qeob-42" value="&lt;font style=&quot;font-size: 6px;&quot;&gt;DynamoDB&amp;nbsp; Terraform state lock&lt;/font&gt;" style="sketch=0;outlineConnect=0;fontColor=#232F3E;gradientColor=none;strokeColor=#ffffff;fillColor=#232F3E;dashed=0;verticalLabelPosition=middle;verticalAlign=bottom;align=center;html=1;whiteSpace=wrap;fontSize=10;fontStyle=1;spacing=3;shape=mxgraph.aws4.productIcon;prIcon=mxgraph.aws4.dynamodb;strokeWidth=1;aspect=fixed;" vertex="1" parent="E9GReNg-ktcZnUG_Qeob-18">
          <mxGeometry x="27" y="173" width="42.14" height="79" as="geometry" />
        </mxCell>
        <mxCell id="E9GReNg-ktcZnUG_Qeob-43" value="&lt;span style=&quot;font-size: 6px;&quot;&gt;S3 Terraform State&lt;br&gt;&lt;/span&gt;" style="sketch=0;outlineConnect=0;fontColor=#232F3E;gradientColor=none;strokeColor=#ffffff;fillColor=#232F3E;dashed=0;verticalLabelPosition=middle;verticalAlign=bottom;align=center;html=1;whiteSpace=wrap;fontSize=10;fontStyle=1;spacing=3;shape=mxgraph.aws4.productIcon;prIcon=mxgraph.aws4.s3;strokeWidth=1;aspect=fixed;" vertex="1" parent="E9GReNg-ktcZnUG_Qeob-18">
          <mxGeometry x="27.5" y="273" width="41.64" height="78" as="geometry" />
        </mxCell>
        <mxCell id="E9GReNg-ktcZnUG_Qeob-44" value="&amp;nbsp; &amp;nbsp; &amp;nbsp; &amp;nbsp; &amp;nbsp; &amp;nbsp; &amp;nbsp; &amp;nbsp; &amp;nbsp; &amp;nbsp; &amp;nbsp; &amp;nbsp; &amp;nbsp; &amp;nbsp; &amp;nbsp; &amp;nbsp; &amp;nbsp; &amp;nbsp; &amp;nbsp; &amp;nbsp; &amp;nbsp; &amp;nbsp; &amp;nbsp; &amp;nbsp; &amp;nbsp; &amp;nbsp; &amp;nbsp; &amp;nbsp; &amp;nbsp; &amp;nbsp; &amp;nbsp; &amp;nbsp; &amp;nbsp; &amp;nbsp; &amp;nbsp; &amp;nbsp; &amp;nbsp; &amp;nbsp; &amp;nbsp; &amp;nbsp; &amp;nbsp; &amp;nbsp; &amp;nbsp; &amp;nbsp; &amp;nbsp; &amp;nbsp; &amp;nbsp; &amp;nbsp; &amp;nbsp; &amp;nbsp; &amp;nbsp;&amp;nbsp;" style="fillColor=none;strokeColor=#DD3522;verticalAlign=top;fontStyle=0;fontColor=#DD3522;whiteSpace=wrap;html=1;align=center;" vertex="1" parent="E9GReNg-ktcZnUG_Qeob-18">
          <mxGeometry x="431" y="92.69" width="68.5" height="58.13" as="geometry" />
        </mxCell>
        <mxCell id="E9GReNg-ktcZnUG_Qeob-45" value="&lt;font color=&quot;#ff0000&quot; style=&quot;font-size: 8px;&quot;&gt;ALB SG&lt;/font&gt;" style="text;html=1;align=center;verticalAlign=middle;resizable=0;points=[];autosize=1;strokeColor=none;fillColor=none;fontSize=8;" vertex="1" parent="E9GReNg-ktcZnUG_Qeob-18">
          <mxGeometry x="390" y="119" width="47" height="22" as="geometry" />
        </mxCell>
        <mxCell id="E9GReNg-ktcZnUG_Qeob-46" value="" style="sketch=0;outlineConnect=0;fontColor=#232F3E;gradientColor=none;fillColor=#232F3D;strokeColor=none;dashed=0;verticalLabelPosition=bottom;verticalAlign=top;align=center;html=1;fontSize=12;fontStyle=0;pointerEvents=1;shape=mxgraph.aws4.client;" vertex="1" parent="1">
          <mxGeometry x="452" y="859" width="40" height="40" as="geometry" />
        </mxCell>
        <mxCell id="E9GReNg-ktcZnUG_Qeob-47" value="" style="sketch=0;outlineConnect=0;fontColor=#232F3E;gradientColor=none;fillColor=#232F3D;strokeColor=none;dashed=0;verticalLabelPosition=bottom;verticalAlign=top;align=center;html=1;fontSize=12;fontStyle=0;pointerEvents=1;shape=mxgraph.aws4.mobile_client;" vertex="1" parent="1">
          <mxGeometry x="361" y="861" width="40" height="40" as="geometry" />
        </mxCell>
        <mxCell id="E9GReNg-ktcZnUG_Qeob-48" value="clients" style="text;html=1;align=center;verticalAlign=middle;resizable=0;points=[];autosize=1;strokeColor=none;fillColor=none;" vertex="1" parent="1">
          <mxGeometry x="395" y="841" width="52" height="26" as="geometry" />
        </mxCell>
        <mxCell id="E9GReNg-ktcZnUG_Qeob-49" value="Hello-world-lb-123456789.eu-west-1.elb.amazonaws.com" style="text;html=1;align=center;verticalAlign=middle;resizable=0;points=[];autosize=1;strokeColor=none;fillColor=none;" vertex="1" parent="1">
          <mxGeometry x="378.5" y="910" width="324" height="26" as="geometry" />
        </mxCell>
        <mxCell id="E9GReNg-ktcZnUG_Qeob-50" value="" style="shadow=0;dashed=0;html=1;strokeColor=none;fillColor=#4495D1;labelPosition=center;verticalLabelPosition=bottom;verticalAlign=top;align=center;outlineConnect=0;shape=mxgraph.veeam.dns;fontSize=10;" vertex="1" parent="1">
          <mxGeometry x="353" y="910" width="25" height="25" as="geometry" />
        </mxCell>
      </root>
    </mxGraphModel>
  </diagram>
</mxfile>
